<svg width="953" height="588" viewBox="0 0 953 588" fill="none" xmlns="http://www.w3.org/2000/svg">
<g clip-path="url(#clip0)">
<path d="M687.269 232C687.407 229.429 687.497 226.851 687.497 224.231C687.497 100.401 533.596 0 343.753 0C153.909 0 0 100.401 0 224.259C0 226.851 0.0898764 229.429 0.228776 232.028L687.269 232Z" fill="#FCE7F3"/>
<path d="M883.828 232C883.926 230.185 884 228.362 884 226.533C884 139.05 769.081 68.1301 627.321 68.1301C485.561 68.1301 370.642 139.05 370.642 226.533C370.642 228.362 370.707 230.185 370.814 232H883.828Z" fill="#EFEFEF"/>
</g>
<g clip-path="url(#clip1)">
<path d="M268.14 140.5H852.86C860.986 140.5 868.78 143.728 874.526 149.474C880.272 155.22 883.5 163.014 883.5 171.14V545.5H237.5V171.14C237.5 163.014 240.728 155.22 246.474 149.474C252.22 143.728 260.014 140.5 268.14 140.5Z" fill="#E2E2E2"/>
<path d="M136.31 512.27C144.252 512.27 150.69 505.832 150.69 497.89C150.69 489.948 144.252 483.51 136.31 483.51C128.368 483.51 121.93 489.948 121.93 497.89C121.93 505.832 128.368 512.27 136.31 512.27Z" fill="#AB8FE2"/>
<path d="M176.82 512.27C184.762 512.27 191.2 505.832 191.2 497.89C191.2 489.948 184.762 483.51 176.82 483.51C168.878 483.51 162.44 489.948 162.44 497.89C162.44 505.832 168.878 512.27 176.82 512.27Z" fill="#AB8FE2"/>
<path d="M217.34 512.27C225.282 512.27 231.72 505.832 231.72 497.89C231.72 489.948 225.282 483.51 217.34 483.51C209.398 483.51 202.96 489.948 202.96 497.89C202.96 505.832 209.398 512.27 217.34 512.27Z" fill="#AB8FE2"/>
<path d="M257.85 512.27C265.792 512.27 272.23 505.832 272.23 497.89C272.23 489.948 265.792 483.51 257.85 483.51C249.908 483.51 243.47 489.948 243.47 497.89C243.47 505.832 249.908 512.27 257.85 512.27Z" fill="#AB8FE2"/>
<path d="M298.37 512.27C306.312 512.27 312.75 505.832 312.75 497.89C312.75 489.948 306.312 483.51 298.37 483.51C290.428 483.51 283.99 489.948 283.99 497.89C283.99 505.832 290.428 512.27 298.37 512.27Z" fill="#AB8FE2"/>
<path d="M338.88 512.27C346.822 512.27 353.26 505.832 353.26 497.89C353.26 489.948 346.822 483.51 338.88 483.51C330.938 483.51 324.5 489.948 324.5 497.89C324.5 505.832 330.938 512.27 338.88 512.27Z" fill="#AB8FE2"/>
<path fill-rule="evenodd" clip-rule="evenodd" d="M185.5 544H935.5V588H185.5V544ZM187.5 546V586H933.5V546H187.5Z" fill="black"/>
<path d="M445 90H113V305H445V90Z" fill="#78E5E1"/>
<path opacity="0.68" d="M952 442H552V490H952V442Z" fill="#F8DA96"/>
<path fill-rule="evenodd" clip-rule="evenodd" d="M551 371H644.09V373H553V419H581.42V421H551V371Z" fill="black"/>
<path fill-rule="evenodd" clip-rule="evenodd" d="M884 373H644V371H884V373Z" fill="black"/>
<path fill-rule="evenodd" clip-rule="evenodd" d="M97 68H431V285H97V68ZM99 70V283H429V70H99Z" fill="black"/>
<path d="M631 542H490V570H631V542Z" fill="#E2E2E2"/>
<g clip-path="url(#clip2)">
<path d="M562.795 321.721C557.845 325.724 486.117 382.774 486.117 412.75C486.117 421.818 506.522 554.725 508.818 557.427H526.547C526.547 557.427 534.352 446.7 528.141 425.061C532.746 423.31 574.971 410.108 593.703 395.956C612.434 381.803 599.032 327.346 562.795 321.721Z" fill="#372D2F"/>
<path d="M562.795 321.721C557.22 322.601 634.299 603.267 634.299 603.267H653.444C653.444 603.267 646.174 337.624 642.004 324.693C622.146 319.328 577.792 319.328 562.795 321.721Z" fill="#885339"/>
<path d="M665.519 214.076C645.092 201.145 575.205 201.145 502.797 203.737C494.234 204.047 469.939 157.887 459.58 151.321C448.174 144.095 430 150.621 430 154.464C430 162.851 442.956 163.052 445.699 165.764C448.442 168.476 472.949 233.053 493.643 242.561C500.333 245.644 549.816 244.623 553.273 248.637C556.729 252.65 559.896 319.228 562.784 321.701C565.672 324.173 634.076 326.224 641.948 324.703C642.383 319.529 651.593 276.611 653.901 273.248C655.172 273.148 673.58 300.852 673.569 304.345C673.569 308.949 642.071 347.523 628.869 354.129C625.446 355.83 625.948 360.675 626.572 361.856C627.197 363.037 631.913 368.862 634.857 368.862C637.8 368.862 706.45 331.859 708 303.975C708.412 296.438 691.844 230.791 665.519 214.076Z" fill="#D9CB98"/>
<path d="M524.172 555.736C524.172 557.207 524.729 565.915 523.336 567.386C520.827 570.038 500.333 568.977 499.363 568.126C498.393 567.276 497.791 565.464 498.65 564.944C499.508 564.423 507.637 562.872 508.685 562.181C509.733 561.491 511.271 557.817 510.68 555.856" fill="#1F161E"/>
<path d="M604.607 209.953C604.228 213.896 628.356 216.038 628.758 211.804L631.255 185.441L607.105 183.6L604.607 209.953Z" fill="#F8CDBA"/>
<path d="M629.761 201.185C629.984 198.843 624.777 190.305 620.05 191.316C625.892 189.945 629.293 184.02 631.199 185.441L629.761 201.185Z" fill="black"/>
<path d="M610.294 192.697C592.904 192.697 578.806 180.043 578.806 164.433C578.806 148.823 592.904 136.168 610.294 136.168C627.683 136.168 641.781 148.823 641.781 164.433C641.781 180.043 627.683 192.697 610.294 192.697Z" fill="#F8CDBA"/>
<path d="M577.972 168.225C575.082 168.004 572.843 166.731 572.971 165.381C573.099 164.032 575.546 163.117 578.436 163.338C581.326 163.559 583.565 164.832 583.437 166.182C583.308 167.531 580.862 168.446 577.972 168.225Z" fill="#FA9E9F"/>
<path d="M610.887 170.744C607.997 170.523 605.758 169.25 605.886 167.9C606.014 166.551 608.461 165.636 611.351 165.857C614.241 166.078 616.479 167.351 616.351 168.701C616.223 170.05 613.777 170.965 610.887 170.744Z" fill="#FA9E9F"/>
<path fill-rule="evenodd" clip-rule="evenodd" d="M591.832 161.298C591.615 161.093 591.274 161.103 591.069 161.32C590.989 161.404 590.881 161.513 590.751 161.644C590.037 162.36 588.672 163.731 587.891 165.229C587.426 166.122 587.12 167.144 587.344 168.155C587.573 169.192 588.329 170.087 589.704 170.771C589.971 170.904 590.296 170.796 590.428 170.529C590.561 170.262 590.453 169.937 590.186 169.805C589.008 169.218 588.537 168.55 588.398 167.921C588.253 167.267 588.437 166.519 588.849 165.728C589.543 164.398 590.749 163.181 591.48 162.443C591.627 162.296 591.754 162.167 591.854 162.061C592.059 161.844 592.049 161.502 591.832 161.298Z" fill="#1F161E"/>
<path fill-rule="evenodd" clip-rule="evenodd" d="M605.861 173.921C605.645 173.715 605.304 173.723 605.097 173.938C604.433 174.634 603.478 175.352 602.5 175.886C601.504 176.429 600.572 176.733 599.937 176.705C599.639 176.691 599.387 176.922 599.373 177.22C599.36 177.518 599.591 177.77 599.889 177.784C600.826 177.825 601.973 177.403 603.018 176.834C604.08 176.254 605.127 175.471 605.878 174.685C606.084 174.469 606.077 174.127 605.861 173.921Z" fill="#1F161E"/>
<path d="M641.836 150.31C642.762 140.532 628.267 132.095 617.697 131.294C600.883 130.003 591.461 130.343 582.24 127.611C569.039 123.707 569.284 139.621 569.106 141.433C568.392 149.049 571.035 154.014 580.256 155.935C581.14 153.303 582.484 150.814 584.236 148.559C586.921 147.856 589.797 148.03 592.353 149.049C594.661 149.98 613.772 159.919 628.501 161.06C630.229 163.672 633.106 179.156 631.222 185.451C635.526 186.002 644.668 174.011 645.717 167.435C646.028 165.182 645.746 162.894 644.894 160.756C644.042 158.618 642.644 156.69 640.811 155.125C641.101 153.743 641.758 151.081 641.836 150.31Z" fill="black"/>
<path d="M629.293 173.461C625.463 173.461 622.358 170.673 622.358 167.235C622.358 163.797 625.463 161.01 629.293 161.01C633.123 161.01 636.228 163.797 636.228 167.235C636.228 170.673 633.123 173.461 629.293 173.461Z" fill="#F8CDBA"/>
<path d="M628.925 354.119C642.127 347.513 673.614 308.939 673.625 304.335C673.625 302.093 666.076 289.913 660.312 281.475L697.196 263.57C704.309 282.586 708.201 300.282 707.989 303.975C706.45 331.859 637.856 368.802 634.913 368.802C631.969 368.802 627.253 363.027 626.628 361.796C626.004 360.565 625.491 355.82 628.925 354.119Z" fill="#F8CDBA"/>
<path d="M459.581 151.361C469.939 157.927 494.234 204.067 502.842 203.777C517.415 203.257 509.019 203.517 523.001 203.297L523.079 244.903C506.856 244.903 498.315 244.713 493.699 242.601C472.994 233.093 448.475 168.536 445.755 165.804C443.034 163.072 430.056 162.891 430.056 154.504C430 150.661 448.208 144.135 459.581 151.361Z" fill="#F8CDBA"/>
</g>
<g clip-path="url(#clip3)">
<path fill-rule="evenodd" clip-rule="evenodd" d="M97.8132 67.8096H430.187V284.191H97.8132V67.8096ZM98.8132 68.8096V283.191H429.187V68.8096H98.8132Z" fill="black"/>
<path fill-rule="evenodd" clip-rule="evenodd" d="M429.687 80.2595H98.3132V79.2595H429.687V80.2595Z" fill="black"/>
<path fill-rule="evenodd" clip-rule="evenodd" d="M121.93 98.4456H222.53V197.852H121.93V98.4456ZM122.93 99.4456V196.852H221.53V99.4456H122.93Z" fill="black"/>
<path d="M144.398 146.273L154.825 150.487V153.752L141.199 147.439V145.007L154.825 138.711V141.975L144.398 146.273Z" fill="white"/>
<path d="M168.767 159.082H166.118L176.245 132.748H178.877L168.767 159.082Z" fill="white"/>
<path d="M201.581 146.173L190.57 141.859V138.694L204.795 144.99V147.422L190.57 153.735V150.537L201.581 146.173Z" fill="white"/>
<path fill-rule="evenodd" clip-rule="evenodd" d="M393.355 108.11H241.136V107.11H393.355V108.11Z" fill="black"/>
<path fill-rule="evenodd" clip-rule="evenodd" d="M393.355 122.964H241.136V121.964H393.355V122.964Z" fill="black"/>
<path fill-rule="evenodd" clip-rule="evenodd" d="M393.355 137.818H241.136V136.818H393.355V137.818Z" fill="black"/>
<path fill-rule="evenodd" clip-rule="evenodd" d="M393.355 152.672H241.136V151.672H393.355V152.672Z" fill="black"/>
<path d="M105.517 76.9743C107.074 76.9743 108.336 75.7273 108.336 74.1892C108.336 72.651 107.074 71.4041 105.517 71.4041C103.96 71.4041 102.698 72.651 102.698 74.1892C102.698 75.7273 103.96 76.9743 105.517 76.9743Z" fill="#AB8DE5"/>
<path d="M115.226 76.9743C116.783 76.9743 118.045 75.7273 118.045 74.1892C118.045 72.651 116.783 71.4041 115.226 71.4041C113.67 71.4041 112.407 72.651 112.407 74.1892C112.407 75.7273 113.67 76.9743 115.226 76.9743Z" fill="#73E5E2"/>
<path d="M124.936 76.9743C126.493 76.9743 127.755 75.7273 127.755 74.1892C127.755 72.651 126.493 71.4041 124.936 71.4041C123.379 71.4041 122.117 72.651 122.117 74.1892C122.117 75.7273 123.379 76.9743 124.936 76.9743Z" fill="#50B89D"/>
</g>
<g clip-path="url(#clip4)">
<path d="M882.202 359.856H668.798C667.805 359.856 667 360.621 667 361.565V362.621C667 363.565 667.805 364.331 668.798 364.331H882.202C883.195 364.331 884 363.565 884 362.621V361.565C884 360.621 883.195 359.856 882.202 359.856Z" fill="#D8D8D8"/>
<path d="M758.939 271H745.974C743.908 271 742.232 272.593 742.232 274.558V356.298C742.232 358.263 743.908 359.856 745.974 359.856H758.939C761.006 359.856 762.681 358.263 762.681 356.298V274.558C762.681 272.593 761.006 271 758.939 271Z" fill="#969696"/>
<path d="M769.8 291.831H765.795C764.075 291.831 762.681 293.157 762.681 294.791V356.896C762.681 358.531 764.075 359.856 765.795 359.856H769.8C771.519 359.856 772.913 358.531 772.913 356.896V294.791C772.913 293.157 771.519 291.831 769.8 291.831Z" fill="#D8D8D8"/>
<path d="M780.134 291.831H775.924C774.261 291.831 772.913 293.113 772.913 294.694V356.993C772.913 358.574 774.261 359.856 775.924 359.856H780.134C781.796 359.856 783.145 358.574 783.145 356.993V294.694C783.145 293.113 781.796 291.831 780.134 291.831Z" fill="#969696"/>
<path d="M787.561 296.738L784.108 298.245C782.494 298.95 781.786 300.765 782.527 302.299L809.696 358.563C810.437 360.098 812.346 360.771 813.96 360.066L817.414 358.559C819.028 357.854 819.736 356.039 818.995 354.505L791.826 298.241C791.085 296.706 789.175 296.033 787.561 296.738Z" fill="#D8D8D8"/>
<path d="M752.449 337.371C755.606 337.371 758.164 334.938 758.164 331.937C758.164 328.936 755.606 326.504 752.449 326.504C749.293 326.504 746.734 328.936 746.734 331.937C746.734 334.938 749.293 337.371 752.449 337.371Z" fill="#D8D8D8"/>
<path d="M757.638 340.609H747.29C746.531 340.609 745.916 341.194 745.916 341.915C745.916 342.637 746.531 343.221 747.29 343.221H757.638C758.397 343.221 759.012 342.637 759.012 341.915C759.012 341.194 758.397 340.609 757.638 340.609Z" fill="#D8D8D8"/>
<path d="M757.638 347.307H747.29C746.531 347.307 745.916 347.892 745.916 348.613C745.916 349.335 746.531 349.92 747.29 349.92H757.638C758.397 349.92 759.012 349.335 759.012 348.613C759.012 347.892 758.397 347.307 757.638 347.307Z" fill="#D8D8D8"/>
<path d="M768.864 302.101C768.864 301.541 768.386 301.086 767.797 301.086C767.208 301.086 766.73 301.541 766.73 302.101V349.572C766.73 350.133 767.208 350.587 767.797 350.587C768.386 350.587 768.864 350.133 768.864 349.572V302.101Z" fill="#969696"/>
<path d="M723.976 362.093H714.826C712.816 362.093 711.186 363.643 711.186 365.554C711.186 367.465 712.816 369.014 714.826 369.014H723.976C725.986 369.014 727.615 367.465 727.615 365.554C727.615 363.643 725.986 362.093 723.976 362.093Z" fill="#D8D8D8"/>
<path d="M836.174 362.093H827.024C825.014 362.093 823.385 363.643 823.385 365.554C823.385 367.465 825.014 369.014 827.024 369.014H836.174C838.184 369.014 839.814 367.465 839.814 365.554C839.814 363.643 838.184 362.093 836.174 362.093Z" fill="#D8D8D8"/>
</g>
</g>
<defs>
<clipPath id="clip0">
<rect width="884" height="232" fill="white"/>
</clipPath>
<clipPath id="clip1">
<rect width="856" height="520" fill="white" transform="translate(97 68)"/>
</clipPath>
<clipPath id="clip2">
<rect width="278" height="491" fill="white" transform="matrix(-1 0 0 1 708 127)"/>
</clipPath>
<clipPath id="clip3">
<rect width="332" height="216" fill="white" transform="translate(98 68)"/>
</clipPath>
<clipPath id="clip4">
<rect width="217" height="98" fill="white" transform="translate(667 271)"/>
</clipPath>
</defs>
</svg>
